<svg xmlns="http://www.w3.org/2000/svg" width="90.333" height="90.328" viewBox="0 0 90.333 90.328">
  <g id="Grupo_127" data-name="Grupo 127" transform="translate(0 -0.013)" opacity="0.41">
    <g id="Grupo_9" data-name="Grupo 9" transform="translate(0 41.641)">
      <g id="Grupo_8" data-name="Grupo 8" transform="translate(0)">
        <path id="Caminho_87" data-name="Caminho 87" d="M87.507,238.893a7.936,7.936,0,0,0-10.927.66L68.8,247.9a7.953,7.953,0,0,0-7.582-5.585H47.338c-1.053,0-1.406-.4-3.236-1.812a18.563,18.563,0,0,0-24.408.058l-5.1,4.492a7.906,7.906,0,0,0-7.277-.092l-5.852,2.925A2.649,2.649,0,0,0,.279,251.44L16.157,283.2a2.649,2.649,0,0,0,3.551,1.184l5.852-2.927a7.933,7.933,0,0,0,4.386-7.38H61.218a18.612,18.612,0,0,0,14.819-7.41l12.7-16.94A7.917,7.917,0,0,0,87.507,238.893ZM23.193,276.719l-3.484,1.743L6.2,251.44,9.683,249.7a2.645,2.645,0,0,1,3.55,1.184L24.377,273.17A2.646,2.646,0,0,1,23.193,276.719Zm61.315-30.171-12.7,16.94a13.293,13.293,0,0,1-10.585,5.293H28.1l-9.917-19.835,5.009-4.409a13.264,13.264,0,0,1,17.483,0c2.936,2.585,4.762,3.073,6.663,3.073H61.218a2.646,2.646,0,0,1,0,5.293H47.7a2.646,2.646,0,1,0,0,5.293H62.992a7.961,7.961,0,0,0,5.81-2.528l11.651-12.506a2.646,2.646,0,0,1,4.056,3.387Z" transform="translate(0 -235.959)"/>
      </g>
    </g>
    <g id="Grupo_11" data-name="Grupo 11" transform="translate(31.933 0.013)">
      <g id="Grupo_10" data-name="Grupo 10">
        <path id="Caminho_88" data-name="Caminho 88" d="M204.7,18.071a10.543,10.543,0,0,0,2.929-7.3A10.729,10.729,0,0,0,197.048.013a10.9,10.9,0,0,0-10.762,10.762,10.389,10.389,0,0,0,3.026,7.318,16.144,16.144,0,0,0-8.318,14.029v2.646a2.647,2.647,0,0,0,2.646,2.646H210.28a2.647,2.647,0,0,0,2.646-2.646V32.121A16.131,16.131,0,0,0,204.7,18.071ZM197.048,5.306a5.456,5.456,0,0,1,5.293,5.469,5.3,5.3,0,0,1-5.293,5.293,5.456,5.456,0,0,1-5.469-5.293A5.613,5.613,0,0,1,197.048,5.306ZM186.287,32.121A10.9,10.9,0,0,1,197.048,21.36a10.686,10.686,0,0,1,10.585,10.762Z" transform="translate(-180.994 -0.013)"/>
      </g>
    </g>
  </g>
</svg>
