<svg xmlns="http://www.w3.org/2000/svg" xmlns:xlink="http://www.w3.org/1999/xlink" width="635" height="635" viewBox="0 0 635 635">
  <defs>
    <clipPath id="clip-path">
      <circle id="Elipse_33" data-name="Elipse 33" cx="317.5" cy="317.5" r="317.5" transform="translate(104 6728)" fill="#fff" stroke="#537ec5" stroke-width="6"/>
    </clipPath>
  </defs>
  <g id="Grupo_de_máscara_1" data-name="Grupo de máscara 1" transform="translate(-104 -6728)" clip-path="url(#clip-path)">
    <g id="undraw_Group_chat_re_frmo" transform="translate(104 6815.946)">
      <path id="Caminho_401" data-name="Caminho 401" d="M162.427,385.237a6.466,6.466,0,0,0-9.851-1.121l-20.418-10.539,1.269,11.872,19.194,8.187a6.5,6.5,0,0,0,9.8-8.4Z" transform="translate(-68.289 -59.789)" fill="#a0616a"/>
      <path id="Caminho_402" data-name="Caminho 402" d="M144.282,390.016a2.9,2.9,0,0,1-2.359.025l-19.394-8.413a29.817,29.817,0,0,1-15.086-14.594l-10.2-21.521a9.321,9.321,0,0,1,14.725-11.433l17.922,33.251,16.548,12.5a2.9,2.9,0,0,1,1.02,3.164l-1.624,5.246a2.9,2.9,0,0,1-.98,1.422,2.867,2.867,0,0,1-.577.352Z" transform="translate(-68.289 -59.789)" fill="#ccc"/>
      <circle id="Elipse_34" data-name="Elipse 34" cx="15.792" cy="15.792" r="15.792" transform="translate(12.718 228.829)" fill="#a0616a"/>
      <path id="Caminho_403" data-name="Caminho 403" d="M34.907,451.788h7.882l3.751-30.405H34.905Z" fill="#a0616a"/>
      <path id="Caminho_404" data-name="Caminho 404" d="M101.507,509.324h24.775V518.9h-15.2a9.572,9.572,0,0,1-9.572-9.572h0Z" transform="translate(159.522 968.426) rotate(179.997)" fill="#2f2e41"/>
      <path id="Caminho_405" data-name="Caminho 405" d="M9.188,451.788H17.07l3.751-30.405H9.186Z" fill="#a0616a"/>
      <path id="Caminho_406" data-name="Caminho 406" d="M75.787,509.324h24.775V518.9h-15.2a9.572,9.572,0,0,1-9.572-9.572h0Z" transform="translate(108.084 968.428) rotate(179.997)" fill="#2f2e41"/>
      <path id="Caminho_407" data-name="Caminho 407" d="M74.724,502.874a2.892,2.892,0,0,1-.691-2.288l13.8-103.511,34.289,5.823,3.659-2.2-9.463,98.212a2.9,2.9,0,0,1-2.634,2.549l-10.383.865a2.893,2.893,0,0,1-3.129-3.049l2.688-46.772a.322.322,0,0,0-.631-.1l-13.3,49.317a2.9,2.9,0,0,1-2.794,2.141H76.9a2.893,2.893,0,0,1-2.177-.988Z" transform="translate(-68.289 -59.789)" fill="#2f2e41"/>
      <path id="Caminho_408" data-name="Caminho 408" d="M98.471,404.32a2.272,2.272,0,0,0-2.9-.121l-6.855,5.332a2.891,2.891,0,0,1-4.557-1.483c-3.363-11.776-10.981-41.42-9.1-62.283,1.064-11.826,11.276-20.814,22.765-20.06,7.854.524,13.022,5.055,15.358,13.467,5.737,20.654,12.042,58.54,13.248,65.925a2.881,2.881,0,0,1-1.374,2.951,21.179,21.179,0,0,1-10.733,3.02C109.737,411.068,104.248,409.474,98.471,404.32Z" transform="translate(-68.289 -59.789)" fill="#ccc"/>
      <path id="Caminho_409" data-name="Caminho 409" d="M101.058,411.667A6.466,6.466,0,0,0,94,404.705l-9.562-20.893-6.328,10.125,10.051,18.288a6.5,6.5,0,0,0,12.9-.559Z" transform="translate(-68.289 -59.789)" fill="#a0616a"/>
      <path id="Caminho_410" data-name="Caminho 410" d="M83.83,404.23a2.9,2.9,0,0,1-1.872-1.436L71.89,384.206a29.817,29.817,0,0,1-2.864-20.793l5.259-23.226a9.321,9.321,0,0,1,18.642.091L86.509,377.5l5.307,20.049a2.9,2.9,0,0,1-1.15,3.119l-4.516,3.126a2.9,2.9,0,0,1-1.648.514,2.865,2.865,0,0,1-.672-.08Z" transform="translate(-68.289 -59.789)" fill="#ccc"/>
      <path id="Caminho_411" data-name="Caminho 411" d="M23.356,296.186,17.57,320.62,25.928,341.2l-5.787-19.932Z" opacity="0.2"/>
      <path id="Caminho_412" data-name="Caminho 412" d="M87.787,317.4a10.634,10.634,0,0,1-4.107-.743c-.575-.222-1.172-.4-1.746-.625-5.068-1.958-8.406-7.355-8.526-12.787a18.414,18.414,0,0,1,6.87-14.178,26.586,26.586,0,0,1,15-5.67c5.835-.444,12.406,1.035,15.667,5.9a5.118,5.118,0,0,1,.961,4.425,2.831,2.831,0,0,1-.8,1.225c-1.456,1.3-2.908.321-4.392.235a4.856,4.856,0,0,0-4.532,3.468,10.451,10.451,0,0,0,.163,6.038,15.084,15.084,0,0,1,.76,3.671,3.691,3.691,0,0,1-1.529,3.25c-1.275.771-2.949.325-4.225-.445a29.347,29.347,0,0,0-3.756-2.405c-1.378-.566-3.229-.441-4.031.815a4.46,4.46,0,0,0-.51,1.472c-.719,3.276-.554,3.083-1.273,6.359Z" transform="translate(-68.289 -59.789)" fill="#2f2e41"/>
      <path id="Caminho_413" data-name="Caminho 413" d="M555.242,207.983H164.951a5.612,5.612,0,0,0-5.607,5.607V478.062a5.612,5.612,0,0,0,5.607,5.607H555.242A5.6,5.6,0,0,0,559.5,481.7a1.32,1.32,0,0,0,.122-.154,5.25,5.25,0,0,0,.8-1.357,5.464,5.464,0,0,0,.424-2.128V313.426h-1.6V478.062a3.973,3.973,0,0,1-.662,2.2,4.149,4.149,0,0,1-1.518,1.363,3.975,3.975,0,0,1-1.832.444H164.951a4.011,4.011,0,0,1-4.006-4.006V213.59a4.011,4.011,0,0,1,4.006-4.006H555.242a4.012,4.012,0,0,1,4.012,4.006v35.537h1.6V213.59A5.613,5.613,0,0,0,555.242,207.983Z" transform="translate(-68.289 -59.789)" fill="#3f3d56"/>
      <rect id="Retângulo_54" data-name="Retângulo 54" width="399.908" height="1.603" transform="translate(91.853 170.669)" fill="#3f3d56"/>
      <circle id="Elipse_35" data-name="Elipse 35" cx="4.809" cy="4.809" r="4.809" transform="translate(100.669 155.41)" fill="#ccc"/>
      <circle id="Elipse_36" data-name="Elipse 36" cx="4.809" cy="4.809" r="4.809" transform="translate(114.493 155.41)" fill="#ccc"/>
      <circle id="Elipse_37" data-name="Elipse 37" cx="4.809" cy="4.809" r="4.809" transform="translate(128.318 155.41)" fill="#ccc"/>
      <path id="Caminho_414" data-name="Caminho 414" d="M298,451.252a9.953,9.953,0,0,1-9.044-14.005l11.456-25.558a85.693,85.693,0,1,1,32.4,18.045l-29.236,19.793A9.923,9.923,0,0,1,298,451.252Zm59.113-176.714a73.391,73.391,0,0,0-45.72,130.834L315,408.25l-12.326,27.5L330.96,416.6l2.793.938a73.413,73.413,0,1,0,23.359-143Z" transform="translate(-68.289 -59.789)" fill="#3f3d56"/>
      <circle id="Elipse_38" data-name="Elipse 38" cx="11.908" cy="11.908" r="11.908" transform="translate(276.915 272.305)" fill="#3f3d56"/>
      <circle id="Elipse_39" data-name="Elipse 39" cx="11.908" cy="11.908" r="11.908" transform="translate(243.175 272.305)" fill="#3f3d56"/>
      <circle id="Elipse_40" data-name="Elipse 40" cx="11.908" cy="11.908" r="11.908" transform="translate(310.654 272.305)" fill="#3f3d56"/>
      <path id="Caminho_415" data-name="Caminho 415" d="M656.563,296.871H543.4a5.144,5.144,0,0,1,0-10.288H656.563a5.144,5.144,0,0,1,0,10.288Z" transform="translate(-68.289 -59.789)" fill="#ccc"/>
      <path id="Caminho_416" data-name="Caminho 416" d="M582.619,275.009H543.4a5.144,5.144,0,0,1,0-10.288h39.222a5.144,5.144,0,0,1,0,10.288Z" transform="translate(-68.289 -59.789)" fill="#ccc"/>
      <circle id="Elipse_41" data-name="Elipse 41" cx="21.861" cy="21.861" r="21.861" transform="translate(401.99 199.627)" fill="#3080fd"/>
      <path id="Caminho_417" data-name="Caminho 417" d="M667.906,247.842H464.08a10.946,10.946,0,0,0-10.931,10.931v45.009a10.946,10.946,0,0,0,10.931,10.931H667.906a10.946,10.946,0,0,0,10.931-10.931V258.773A10.946,10.946,0,0,0,667.906,247.842Zm9.645,55.94a9.657,9.657,0,0,1-9.645,9.645H464.08a9.657,9.657,0,0,1-9.645-9.645V258.773a9.656,9.656,0,0,1,9.645-9.645H667.906a9.657,9.657,0,0,1,9.645,9.645Z" transform="translate(-68.289 -59.789)" fill="#3f3d56"/>
      <circle id="Elipse_42" data-name="Elipse 42" cx="14.789" cy="14.789" r="14.789" transform="translate(594.473 176.48)" fill="#3080fd"/>
      <path id="Caminho_418" data-name="Caminho 418" d="M677.094,259.374a.641.641,0,0,1-.188-.455V242.551a.643.643,0,0,1,1.286,0v16.368a.643.643,0,0,1-1.1.455Z" transform="translate(-68.289 -59.789)" fill="#fff"/>
      <path id="Caminho_419" data-name="Caminho 419" d="M668.915,251.19a.643.643,0,0,1,.455-1.1h16.368a.643.643,0,0,1,0,1.286H669.37a.641.641,0,0,1-.455-.188Z" transform="translate(-68.289 -59.789)" fill="#fff"/>
      <path id="Caminho_420" data-name="Caminho 420" d="M695.252,447.621h-30.87c0,.887-31.815,1.607-31.815,1.607a8.268,8.268,0,0,0-1.357,1.286,7.98,7.98,0,0,0-1.865,5.144v1.286a8.04,8.04,0,0,0,8.037,8.037h57.869a8.044,8.044,0,0,0,8.037-8.037v-1.286A8.048,8.048,0,0,0,695.252,447.621Z" transform="translate(-68.289 -59.789)" fill="#3f3d56"/>
      <rect id="Retângulo_55" data-name="Retângulo 55" width="8.359" height="54.011" transform="translate(594.169 404.874)" fill="#3f3d56"/>
      <path id="Caminho_421" data-name="Caminho 421" d="M694.609,518.379c0,.9-12.666.349-28.291.349s-28.291.554-28.291-.349,12.666-8.065,28.291-8.065S694.609,517.476,694.609,518.379Z" transform="translate(-68.289 -59.789)" fill="#3f3d56"/>
      <circle id="Elipse_43" data-name="Elipse 43" cx="18.004" cy="18.004" r="18.004" transform="translate(583.027 279.446)" fill="#2f2e41"/>
      <path id="Caminho_422" data-name="Caminho 422" d="M556.228,451.487h-7.883l-3.75-30.405h11.635Z" fill="#ffb8b8"/>
      <path id="Caminho_423" data-name="Caminho 423" d="M542.714,449.234h15.2v9.572H533.142A9.572,9.572,0,0,1,542.714,449.234Z" fill="#2f2e41"/>
      <path id="Caminho_424" data-name="Caminho 424" d="M543.922,447.087l-7.521-2.36,5.525-30.133,11.1,3.484Z" fill="#ffb8b8"/>
      <path id="Caminho_425" data-name="Caminho 425" d="M598.429,501.3h15.2v9.572H588.857A9.572,9.572,0,0,1,598.429,501.3Z" transform="matrix(0.954, 0.299, -0.299, 0.954, 110.827, -216.594)" fill="#2f2e41"/>
      <path id="Caminho_426" data-name="Caminho 426" d="M674.142,442.35a24.34,24.34,0,0,0-.977-4.514l-1.472-1.852-3.832-4.81-.167.006c-.283.013-1.46.077-3.279.219h-.019c-1.125.09-2.5.206-4.064.354-.412.045-.842.084-1.286.129V438.6h8.037a1.61,1.61,0,0,1,1.594,1.4c.006.071.013.135.013.206a1.608,1.608,0,0,1-1.607,1.608H620.4a18.265,18.265,0,0,0-1.71,1.286,9.569,9.569,0,0,0-3.376,5.054c-2.726,11.985-7.7,34.335-9.163,40.9a2.918,2.918,0,0,0,.868,2.752,2.853,2.853,0,0,0,.945.585l5.8,2.173a3.084,3.084,0,0,0,.739.174c.032,0,.058.006.09.006a1.7,1.7,0,0,0,.18.007,2.914,2.914,0,0,0,2.707-1.865l4.578-12.011,7.054-18.518,2.79-7.324c3.234.759,30.368,6.764,39.453-2.913a10.332,10.332,0,0,0,2.083-3.286,13.376,13.376,0,0,0,.7-6.481Z" transform="translate(-68.289 -59.789)" fill="#2f2e41"/>
      <path id="Caminho_427" data-name="Caminho 427" d="M682.013,444.1c-.141-.572-.3-1.164-.489-1.762l-5.3-6.661-.167.006c-.335.019-1.923.1-4.36.3-2.765.231-6.629.6-10.969,1.189-.128.013-.263.032-.392.051-.424.058-.855.116-1.286.18v1.19h8.037a1.61,1.61,0,0,1,1.595,1.4c.006.071.013.135.013.206a1.608,1.608,0,0,1-1.607,1.607H638.675c-1.241.405-2.437.829-3.581,1.286-6.005,2.379-10.5,5.5-11.42,9.555-.309,1.363-.649,2.861-1.009,4.456-1.337,5.928-2.964,13.188-4.437,19.785v.006c-.3,1.363-.6,2.688-.894,3.974-1.228,5.53-2.27,10.217-2.823,12.68-.013.071-.025.135-.039.206v.013a3,3,0,0,0,.18,1.472l.006.006v.006a2.848,2.848,0,0,0,.836,1.151,2.953,2.953,0,0,0,.829.482l5.8,2.173a2.945,2.945,0,0,0,1.009.186,2.851,2.851,0,0,0,1.382-.354,2.894,2.894,0,0,0,1.325-1.511l12.487-32.766,1.936-5.086c3.234.759,30.368,6.758,39.453-2.913A10.861,10.861,0,0,0,682.6,449.5a19.087,19.087,0,0,0-.585-5.4Z" transform="translate(-68.289 -59.789)" fill="#2f2e41"/>
      <path id="Caminho_428" data-name="Caminho 428" d="M681.3,387.375c-.1-.122-.212-.244-.328-.36a15.735,15.735,0,0,0-13.483-4.752,51.029,51.029,0,0,0-6.372,1.254,16.062,16.062,0,0,0-7.188,4.032,15.7,15.7,0,0,0-4.765,11.7c.026.881.032,1.781.019,2.694,0,.424-.007.855-.013,1.286h6.34a3.421,3.421,0,0,1,.817.1,3.544,3.544,0,0,1,2.72,3.44v29.912c.431.122.862.244,1.286.373.135.045.264.084.392.122.148.045.3.09.437.135q1.958.608,3.826,1.286h2.1a1.61,1.61,0,0,1,1.595,1.4c.437.174.862.347,1.279.521,1.485.617,2.893,1.235,4.186,1.832,1.742.8,3.292,1.556,4.591,2.218a2.949,2.949,0,0,0,1.318.322,2.832,2.832,0,0,0,1.672-.553,3.544,3.544,0,0,0,.289-.238,2.9,2.9,0,0,0,.881-2.559,82.359,82.359,0,0,1-.579-15.239c.18-4.276.566-8.661,1.067-12.9.27-2.3.572-4.546.887-6.713.3-2.07.624-4.057.939-5.935a15.822,15.822,0,0,0-3.909-13.381Z" transform="translate(-68.289 -59.789)" fill="#3080fd"/>
      <path id="Caminho_429" data-name="Caminho 429" d="M654.943,387.9a7.634,7.634,0,0,0-1.016-.354,7.393,7.393,0,0,0-8.706,4.2l-4.417,10.2-.553,1.286h15.258a3.419,3.419,0,0,1,.817.1l.514-1.19,1.955-4.514A7.4,7.4,0,0,0,654.943,387.9Z" transform="translate(-68.289 -59.789)" fill="#3080fd"/>
      <circle id="Elipse_44" data-name="Elipse 44" cx="15.792" cy="15.792" r="15.792" transform="translate(584.58 285.87)" fill="#ffb8b8"/>
      <path id="Caminho_430" data-name="Caminho 430" d="M652.583,353.692a56.961,56.961,0,0,0,24.643,8.12l-2.6-3.112a19.09,19.09,0,0,0,5.9,1.171,6.458,6.458,0,0,0,5.264-2.464,6.007,6.007,0,0,0,.4-5.549,11.377,11.377,0,0,0-3.579-4.475,21.308,21.308,0,0,0-19.833-3.544,12.735,12.735,0,0,0-5.923,3.8c-1.5,1.847-4.379,3.492-3.613,5.743Z" transform="translate(-68.289 -59.789)" fill="#2f2e41"/>
      <path id="Caminho_431" data-name="Caminho 431" d="M671.32,340.947a48.536,48.536,0,0,0-17.658-11.419c-4.269-1.581-8.915-2.558-13.377-1.66s-8.683,3.985-9.928,8.364c-1.018,3.58.033,7.435,1.613,10.806s3.689,6.5,4.967,9.992a22.805,22.805,0,0,1-22.947,30.582c4.385.588,8.426,2.648,12.712,3.745s9.344,1.022,12.529-2.048c3.37-3.249,3.437-8.531,3.274-13.208l-.727-20.862c-.123-3.546-.229-7.206,1.05-10.516s4.318-6.208,7.867-6.178c2.689.023,5.07,1.652,7.226,3.259s4.439,3.321,7.118,3.56,5.737-1.743,5.537-4.425Z" transform="translate(-68.289 -59.789)" fill="#2f2e41"/>
      <path id="Caminho_432" data-name="Caminho 432" d="M684.269,406.69l-9.015.244-.656,6.333-.148,1.466-14.12,6.34-1.286.579v11.272l1.286-.367,4.064-1.157h.019l17.9-5.1.206-.058a7,7,0,0,0,5.054-6.655l.045-7.478.039-5.51Z" transform="translate(-68.289 -59.789)" fill="#ffb8b8"/>
      <path id="Caminho_433" data-name="Caminho 433" d="M687.2,394.165a7.4,7.4,0,1,0-14.763.907l.984,16.049a2.885,2.885,0,0,0,1.177,2.148,2.852,2.852,0,0,0,1.89.559l6.893-.424,2.09-.129a2.819,2.819,0,0,0,1.993-.971,2.01,2.01,0,0,0,.154-.193,2.873,2.873,0,0,0,.566-1.9Z" transform="translate(-68.289 -59.789)" fill="#3080fd"/>
      <path id="Caminho_434" data-name="Caminho 434" d="M661.161,437.309h-.829v-.084c-.424.058-.855.116-1.286.18v1.19h5.941Q663.115,437.92,661.161,437.309Zm0,0h-.829v-.084c-.424.058-.855.116-1.286.18v1.19h5.941Q663.115,437.92,661.161,437.309Zm5.922,0h-6.751V406.767a4.829,4.829,0,0,0-3.492-4.63,4.534,4.534,0,0,0-1.331-.193H598.283a4.828,4.828,0,0,0-4.822,4.822v31.506a4.824,4.824,0,0,0,4.822,4.822h68.8a2.9,2.9,0,0,0,2.874-2.578,2.515,2.515,0,0,0,.02-.315,2.9,2.9,0,0,0-2.893-2.893Zm1.607,2.893a1.608,1.608,0,0,1-1.607,1.607h-68.8a3.538,3.538,0,0,1-3.536-3.536V406.767a3.538,3.538,0,0,1,3.536-3.536h57.225a3.422,3.422,0,0,1,.817.1,3.543,3.543,0,0,1,2.72,3.44V438.6h8.037a1.61,1.61,0,0,1,1.594,1.4C668.684,440.068,668.69,440.132,668.69,440.2Zm-7.529-2.893h-.829v-.084c-.424.058-.855.116-1.286.18v1.19h5.941Q663.115,437.92,661.161,437.309Z" transform="translate(-68.289 -59.789)" fill="#3f3d56"/>
      <circle id="Elipse_45" data-name="Elipse 45" cx="3.858" cy="3.858" r="3.858" transform="translate(554.747 358.875)" fill="#3080fd"/>
      <path id="Caminho_435" data-name="Caminho 435" d="M282.308,105.677a5.591,5.591,0,0,0,.026.881L262.144,123.5l-6.021-2.18-4.478,8.657,13.164,6.266,22.073-24.77a5.579,5.579,0,1,0-4.574-5.8Z" transform="translate(-68.289 -59.789)" fill="#ffb8b8"/>
      <path id="Caminho_436" data-name="Caminho 436" d="M255.229,134.132l-19.5-7.038a7.175,7.175,0,0,1,4.872-13.5l19.5,7.038a2.391,2.391,0,0,1,1.438,3.061l-3.248,9a2.4,2.4,0,0,1-3.062,1.438Z" transform="translate(-68.289 -59.789)" fill="#ccc"/>
      <path id="Caminho_437" data-name="Caminho 437" d="M172.66,142.9h6.516l3.1-25.134h-9.617Z" fill="#ffb8b8"/>
      <path id="Caminho_438" data-name="Caminho 438" d="M239.553,200.831h20.479v7.913H247.466a7.913,7.913,0,0,1-7.913-7.913Z" transform="translate(431.306 349.774) rotate(179.997)" fill="#2f2e41"/>
      <path id="Caminho_439" data-name="Caminho 439" d="M156.556,134.486l5.33,3.748,16.993-18.777-7.867-5.531Z" fill="#ffb8b8"/>
      <path id="Caminho_440" data-name="Caminho 440" d="M219.992,195.833h20.479v7.913H227.9a7.913,7.913,0,0,1-7.913-7.913h0Z" transform="matrix(-0.818, -0.575, 0.575, -0.818, 235.371, 435.856)" fill="#2f2e41"/>
      <path id="Caminho_441" data-name="Caminho 441" d="M255.208,157.417s16.262-1.919,13.343,8.634-35.442,19.666-35.442,19.666Z" transform="translate(-68.289 -59.789)" fill="#ffb8b8"/>
      <circle id="Elipse_46" data-name="Elipse 46" cx="13.054" cy="13.054" r="13.054" transform="translate(162.672 17.676)" fill="#ffb8b8"/>
      <path id="Caminho_442" data-name="Caminho 442" d="M202.384,183.555c-7.428-8.65-10.028-21.924,1.818-32.965a39.045,39.045,0,0,1,9.825-6.524l9.547-26.7a14.549,14.549,0,0,1,13.445-9.672,13.924,13.924,0,0,1,13.507,8.686,12.086,12.086,0,0,1,.375,8.559,137.487,137.487,0,0,1-11.14,25.488l.494,3.95,24.132,2.145-.225.366c-.117.191-11.928,18.186-27.037,30.131a24.83,24.83,0,0,1-15.551,5.776A25.768,25.768,0,0,1,202.384,183.555Z" transform="translate(-68.289 -59.789)" fill="#ccc"/>
      <path id="Caminho_443" data-name="Caminho 443" d="M200.106,94.614c2.31-2.752,3.3-6.352,4.1-9.855,1.261-5.543,2.237-11.275,5.038-16.221s7.949-9.045,13.625-8.733c5.644.31,10.206,4.851,12.628,10.017a4.493,4.493,0,0,1,3.648.176c1.746.956,2.4,3.673.945,5.033a12.06,12.06,0,0,1,9.821-.245A11.871,11.871,0,0,1,257.1,84.86a6.472,6.472,0,0,1-1.721,4.856c-2.5,2.578-6.047,1.689-9.2,1.032-2.975-.62-6.6-.788-8.275,2.047a5.313,5.313,0,0,0-.517,3.883c.642,2.83,2.737,4.8,4.77,6.687l.332.618a15.131,15.131,0,0,1-16.9-10.567,15.131,15.131,0,0,1,9.4-17.573h0a2.588,2.588,0,0,1-2.324-3.878,12.3,12.3,0,0,0-6.28-1.567c-3.575.235-6.669,2.78-8.53,5.841s-2.7,6.616-3.557,10.1-1.777,7.026-3.767,10.006a15.924,15.924,0,0,1-25.512,1.309,12.708,12.708,0,0,0,15.081-3.035Z" transform="translate(-68.289 -59.789)" fill="#2f2e41"/>
      <circle id="Elipse_47" data-name="Elipse 47" cx="18.976" cy="18.976" r="18.976" transform="translate(208.723 32.451)" fill="#3080fd"/>
      <path id="Caminho_444" data-name="Caminho 444" d="M295.4,121.887a.822.822,0,0,1-.242-.583v-21a.825.825,0,0,1,1.65,0v21a.825.825,0,0,1-1.408.583Z" transform="translate(-68.289 -59.789)" fill="#fff"/>
      <path id="Caminho_445" data-name="Caminho 445" d="M284.9,111.387a.825.825,0,0,1,.583-1.408h21a.825.825,0,1,1,0,1.65h-21a.822.822,0,0,1-.583-.242Z" transform="translate(-68.289 -59.789)" fill="#fff"/>
      <path id="Caminho_446" data-name="Caminho 446" d="M282.962,123.907a5.6,5.6,0,0,0-.35.808l-25.479,6.756-4.524-4.533-7.733,5.933,9.253,11.267L284.638,131.1a5.579,5.579,0,1,0-1.676-7.193Z" transform="translate(-68.289 -59.789)" fill="#ffb8b8"/>
      <path id="Caminho_447" data-name="Caminho 447" d="M246.357,138.155,231.7,123.5a7.175,7.175,0,1,1,10.147-10.148L256.5,128.007a2.391,2.391,0,0,1,0,3.382l-6.765,6.765a2.4,2.4,0,0,1-3.383,0Z" transform="translate(-68.289 -59.789)" fill="#ccc"/>
    </g>
  </g>
</svg>
