<svg xmlns="http://www.w3.org/2000/svg" width="700.262" height="617.741" viewBox="0 0 700.262 617.741">
  <g id="Grupo_126" data-name="Grupo 126" transform="translate(-1132 -7661)">
    <g id="undraw_Destination_re_sr74_1_" data-name="undraw_Destination_re_sr74 (1)" transform="translate(1148 7789.306)">
      <path id="Caminho_330" data-name="Caminho 330" d="M868.478,653.1a.811.811,0,0,1-1.041.476L224.147,414.2a.809.809,0,0,1,.565-1.517L868,652.055a.812.812,0,0,1,.478,1.04Z" transform="translate(-184.266 -198.031)" fill="#f2f2f2"/>
      <path id="Caminho_331" data-name="Caminho 331" d="M549.555,147.5H396.268a45.405,45.405,0,0,0-45.354,45.354v13.855a2.105,2.105,0,0,0-2.664,2.056V219.42a2.105,2.105,0,0,0,2.664,2.056v16.133a2.105,2.105,0,0,0-2.664,2.056V266.3a2.105,2.105,0,0,0,2.664,2.056v9.74a2.105,2.105,0,0,0-2.664,2.056v26.637a2.1,2.1,0,0,0,2.664,2.056v281.29a45.405,45.405,0,0,0,45.354,45.354H549.555a45.405,45.405,0,0,0,45.354-45.354V192.854A45.405,45.405,0,0,0,549.555,147.5ZM585.32,590.134A35.805,35.805,0,0,1,549.555,625.9H396.268A35.805,35.805,0,0,1,360.5,590.134V192.854a35.805,35.805,0,0,1,35.765-35.765H549.555a35.805,35.805,0,0,1,35.765,35.765Z" transform="translate(-208.02 -147.5)" fill="#3f3d56"/>
      <path id="Caminho_332" data-name="Caminho 332" d="M551.186,632.23H397.9a41.139,41.139,0,0,1-41.092-41.092V193.857A41.139,41.139,0,0,1,397.9,152.765H551.186a41.139,41.139,0,0,1,41.092,41.092v397.28a41.139,41.139,0,0,1-41.092,41.092Z" transform="translate(-209.65 -148.503)" fill="#e6e6e6"/>
      <path id="Caminho_333" data-name="Caminho 333" d="M557.231,627.342H396.369a27.747,27.747,0,0,1-27.715-27.715V188.378a27.746,27.746,0,0,1,27.715-27.715h20.978a4.586,4.586,0,0,1,4.581,4.581,13.547,13.547,0,0,0,13.532,13.533h80.548a13.547,13.547,0,0,0,13.533-13.533,4.586,4.586,0,0,1,4.581-4.581h23.109a27.746,27.746,0,0,1,27.715,27.715V599.627A27.746,27.746,0,0,1,557.231,627.342Z" transform="translate(-211.908 -150.009)" fill="#fff"/>
      <path id="Caminho_334" data-name="Caminho 334" d="M505.8,171.178H486.625a2.131,2.131,0,0,1,0-4.262H505.8a2.131,2.131,0,0,1,0,4.262Z" transform="translate(-233.986 -151.201)" fill="#fff"/>
      <circle id="Elipse_19" data-name="Elipse 19" cx="1.065" cy="1.065" r="1.065" transform="translate(284.071 17.314)" fill="#fff"/>
      <rect id="Retângulo_29" data-name="Retângulo 29" width="226.868" height="2.428" transform="translate(151.352 93.892)" fill="#e6e6e6"/>
      <rect id="Retângulo_30" data-name="Retângulo 30" width="226.868" height="2.428" transform="translate(151.352 142.456)" fill="#e6e6e6"/>
      <rect id="Retângulo_31" data-name="Retângulo 31" width="226.868" height="2.428" transform="translate(151.352 242.824)" fill="#e6e6e6"/>
      <rect id="Retângulo_32" data-name="Retângulo 32" width="226.868" height="2.428" transform="translate(151.352 343.191)" fill="#e6e6e6"/>
      <rect id="Retângulo_33" data-name="Retângulo 33" width="226.868" height="2.428" transform="translate(151.352 421.704)" fill="#e6e6e6"/>
      <rect id="Retângulo_34" data-name="Retângulo 34" width="2.428" height="148.932" transform="translate(313.681 95.106)" fill="#e6e6e6"/>
      <rect id="Retângulo_35" data-name="Retângulo 35" width="2.428" height="178.924" transform="translate(200.108 243.994)" fill="#e6e6e6"/>
      <rect id="Retângulo_36" data-name="Retângulo 36" width="171.716" height="2.428" transform="translate(201.323 293.074)" fill="#e6e6e6"/>
      <rect id="Retângulo_37" data-name="Retângulo 37" width="2.428" height="54.416" transform="translate(313.942 422.918)" fill="#e6e6e6"/>
      <rect id="Retângulo_38" data-name="Retângulo 38" width="158.149" height="2.428" transform="translate(156.341 193.635)" fill="#e6e6e6"/>
      <rect id="Retângulo_39" data-name="Retângulo 39" width="2.428" height="92.703" transform="translate(187.129 10.057) rotate(-22.709)" fill="#e6e6e6"/>
      <rect id="Retângulo_40" data-name="Retângulo 40" width="2.428" height="66.338" transform="translate(297.161 28.768)" fill="#e6e6e6"/>
      <path id="Caminho_335" data-name="Caminho 335" d="M600.763,299.637c0,21.757-33.639,72.455-43.469,86.807a3.231,3.231,0,0,1-5.335,0c-9.83-14.352-43.469-65.05-43.469-86.807a46.136,46.136,0,1,1,92.273,0Z" transform="translate(-238.559 -167.702)" fill="#609efe"/>
      <circle id="Elipse_20" data-name="Elipse 20" cx="23.473" cy="23.473" r="23.473" transform="translate(292.594 105.224)" fill="#fff"/>
      <rect id="Retângulo_41" data-name="Retângulo 41" width="198.615" height="2.428" transform="translate(225.636 422.346) rotate(-63.412)" fill="#e6e6e6"/>
      <path id="Caminho_336" data-name="Caminho 336" d="M720.733,494a8.139,8.139,0,0,0,11.588-4.634l28.92-.5-8.49-12.4L726.59,478.84A8.183,8.183,0,0,0,720.733,494Z" transform="translate(-278.18 -210.197)" fill="#ffb8b8"/>
      <path id="Caminho_337" data-name="Caminho 337" d="M742.426,492.1a3.32,3.32,0,0,1-3.316-3.465l.584-13.261a3.3,3.3,0,0,1,2.937-3.151l33.5-3.842-1.123,22.1-32.421,1.616Q742.508,492.1,742.426,492.1Z" transform="translate(-282.512 -208.656)" fill="#3080fd"/>
      <path id="Caminho_338" data-name="Caminho 338" d="M612.542,566.188l-9.433,3.081-16.372-34.918,13.922-4.547Z" transform="translate(-111.825 -100.974)" fill="#ffb8b8"/>
      <path id="Caminho_339" data-name="Caminho 339" d="M792.943,729.7l-30.415,9.934-.126-.385a12.454,12.454,0,0,1,7.972-15.705h0l18.577-6.068Z" transform="translate(-286.834 -256.131)" fill="#2f2e41"/>
      <path id="Caminho_340" data-name="Caminho 340" d="M649.5,583.783h-9.923l-4.721-38.275H649.5Z" transform="translate(-120.995 -103.967)" fill="#ffb8b8"/>
      <path id="Caminho_341" data-name="Caminho 341" d="M823.537,749.152h-32v-.4a12.454,12.454,0,0,1,12.454-12.454h19.543Z" transform="translate(-292.505 -259.717)" fill="#2f2e41"/>
      <path id="Caminho_342" data-name="Caminho 342" d="M795.261,690.962a3.321,3.321,0,0,1-3.293-2.924l-12.794-106.96-18.728,30.064L782.42,667.3a3.339,3.339,0,0,1-1.631,4.191l-18.641,9.122a3.319,3.319,0,0,1-4.609-1.938l-20.658-62.412a26.37,26.37,0,0,1-.587-14.544L749.652,546.9l.157-.085,30.109-16.493.172.063,35.459,12.942L811.838,613.6l2.7,72.935a3.3,3.3,0,0,1-3.111,3.435l-15.953.987C795.4,690.959,795.33,690.962,795.261,690.962Z" transform="translate(-281.833 -220.461)" fill="#2f2e41"/>
      <path id="Caminho_343" data-name="Caminho 343" d="M778.205,546.19c-5.3,0-9.761-1.509-12.553-5.345l-.09-.123,1.807-18.961L751.3,530.682a1.862,1.862,0,0,1-2.646-2.284l20.042-53.226,13.233-43.358a17.431,17.431,0,0,1,14.05-13.919h0c11.789-2.165,18.81,1.812,26.918,10.64a19.09,19.09,0,0,1,4.716,16.1l-7.67,43.838,2.254,39.305a3.314,3.314,0,0,1-1.438,3.617C814.488,535.39,795.266,546.189,778.205,546.19Z" transform="translate(-284.309 -198.924)" fill="#3080fd"/>
      <circle id="Elipse_21" data-name="Elipse 21" cx="19.88" cy="19.88" r="19.88" transform="translate(500.837 172.647)" fill="#ffb8b8"/>
      <path id="Caminho_344" data-name="Caminho 344" d="M821.984,551.934a8.139,8.139,0,0,0,3.3-12.037l17.05-23.365-15.014-.712-13.889,22.3a8.183,8.183,0,0,0,8.557,13.818Z" transform="translate(-296.089 -217.697)" fill="#ffb8b8"/>
      <path id="Caminho_345" data-name="Caminho 345" d="M832.006,522.374a3.323,3.323,0,0,1-2.367-.563l-11.287-7.871a3.3,3.3,0,0,1-.994-4.347l20.094-35.753-20.21-24.328a11.966,11.966,0,1,1,19.615-13.545l22.316,39.387a1.869,1.869,0,0,1,0,1.837l-24.748,43.537a3.326,3.326,0,0,1-2.154,1.6C832.182,522.346,832.095,522.362,832.006,522.374Z" transform="translate(-296.878 -201.323)" fill="#3080fd"/>
      <path id="Caminho_346" data-name="Caminho 346" d="M805.511,377.477c-1.968-1.469-4.691-1.24-7.023-2.009a8.337,8.337,0,0,1-2.95-14.126c2.518-2.256,6.1-2.768,9.456-3.181a63.354,63.354,0,0,1,13.849-.682c4.61.45,9.25,2.007,12.62,5.185a19.106,19.106,0,0,1,5.557,13.827,30.826,30.826,0,0,1-4.1,14.6,11.441,11.441,0,0,1-3.474,4.285,4.691,4.691,0,0,1-5.229.186c-1.291-.955-1.763-2.629-2.346-4.125s-1.578-3.09-3.167-3.321c-2.047-.3-3.608,1.784-5.561,2.465-2.731.952-5.765-1.154-6.879-3.823s-.821-5.69-.508-8.565" transform="translate(-292.739 -187.488)" fill="#2f2e41"/>
      <circle id="Elipse_22" data-name="Elipse 22" cx="10.522" cy="10.522" r="10.522" transform="translate(305.545 233.111)" fill="#609efe"/>
      <path id="Caminho_348" data-name="Caminho 348" d="M741.288,300.511c-4.395,5.857-23.69,12.71-29.235,14.587a1.087,1.087,0,0,1-1.436-1.077c.252-5.849,1.437-26.29,5.832-32.147a15.527,15.527,0,1,1,24.839,18.637Z" transform="translate(-277.082 -171.927)" fill="#f2f2f2"/>
      <circle id="Elipse_23" data-name="Elipse 23" cx="7.9" cy="7.9" r="7.9" transform="translate(444.541 110.494)" fill="#fff"/>
      <circle id="Elipse_24" data-name="Elipse 24" cx="3.541" cy="3.541" r="3.541" transform="translate(425.684 145.792)" fill="#f2f2f2"/>
      <path id="Caminho_349" data-name="Caminho 349" d="M261.848,502.172c6.467,9.88,6.26,42.9,6.061,52.338a1.753,1.753,0,0,1-2.422,1.585c-8.729-3.595-39.073-16.618-45.539-26.5a25.039,25.039,0,0,1,41.9-27.425Z" transform="translate(-182.787 -212.937)" fill="#f2f2f2"/>
      <circle id="Elipse_25" data-name="Elipse 25" cx="12.739" cy="12.739" r="12.739" transform="translate(44.41 288.739)" fill="#fff"/>
      <circle id="Elipse_26" data-name="Elipse 26" cx="5.711" cy="5.711" r="5.711" transform="translate(85.599 347.959)" fill="#f2f2f2"/>
    </g>
    <g id="Grupo_111" data-name="Grupo 111" transform="translate(29 794)">
      <g id="Grupo_110" data-name="Grupo 110" transform="translate(1000.283 6785.141)">
        <circle id="Elipse_20-2" data-name="Elipse 20" cx="3.308" cy="3.308" r="3.308" transform="translate(219.641 153.425)" fill="#c1c1c1"/>
        <circle id="Elipse_21-2" data-name="Elipse 21" cx="6.535" cy="6.535" r="6.535" transform="translate(209.363 279.674)" fill="#c1c1c1"/>
        <circle id="Elipse_22-2" data-name="Elipse 22" cx="4.355" cy="4.355" r="4.355" transform="translate(603.816 81.859)" fill="#c1c1c1"/>
        <circle id="Elipse_23-2" data-name="Elipse 23" cx="7.072" cy="7.072" r="7.072" transform="translate(755.574 259.909)" fill="#c1c1c1"/>
        <circle id="Elipse_24-2" data-name="Elipse 24" cx="3.034" cy="3.034" r="3.034" transform="translate(704.315 151.003)" fill="#c1c1c1"/>
        <circle id="Elipse_25-2" data-name="Elipse 25" cx="4.733" cy="4.733" r="4.733" transform="translate(334.231 110.325)" fill="#c1c1c1"/>
        <circle id="Elipse_26-2" data-name="Elipse 26" cx="3.034" cy="3.034" r="3.034" transform="translate(693.697 249.607)" fill="#c1c1c1"/>
        <circle id="Elipse_27" data-name="Elipse 27" cx="3.776" cy="3.776" r="3.776" transform="translate(102.717 260.029)" fill="#c1c1c1"/>
        <circle id="Elipse_28" data-name="Elipse 28" cx="4.089" cy="4.089" r="4.089" transform="translate(159.772 197.57)" fill="#c1c1c1"/>
      </g>
    </g>
  </g>
</svg>
