<svg id="undraw_my_documents_ym8x_1_" data-name="undraw_my_documents_ym8x (1)" xmlns="http://www.w3.org/2000/svg" width="488.558" height="440.236" viewBox="0 0 488.558 440.236">
  <path id="Caminho_353" data-name="Caminho 353" d="M755.782,282.68a174.458,174.458,0,0,1-203,172.191q-4.086-.667-8.114-1.533-5.457-1.159-10.786-2.666a174.527,174.527,0,1,1,221.9-167.992Z" transform="translate(-286.918 -108.171)" fill="#e6e6e6"/>
  <path id="Caminho_354" data-name="Caminho 354" d="M507.644,435.349a1.316,1.316,0,0,0-.54,1.778l65.61,122.89a1.315,1.315,0,0,0,1.778.54l92.747-49.517a1.316,1.316,0,0,0,.54-1.778l-65.611-122.89a1.315,1.315,0,0,0-1.778-.54Z" transform="translate(-322.589 -206.979)" fill="#3f3d56"/>
  <path id="Caminho_355" data-name="Caminho 355" d="M518.531,444.091l60.041,112.455L660.885,512.6l-60.04-112.457Zm-5.216,2.784.012-.006-.013.006Z" transform="translate(-324.856 -212.13)" fill="#fff"/>
  <path id="Caminho_356" data-name="Caminho 356" d="M553,469.665c-1.279.683-1.551,2.676-.608,4.442s2.751,2.649,4.029,1.966l60.286-32.186c1.279-.683,1.551-2.676.608-4.442s-2.751-2.649-4.029-1.966Z" transform="translate(-338.57 -225.341)" fill="#3080fd"/>
  <path id="Caminho_357" data-name="Caminho 357" d="M564.533,491.27c-1.279.683-1.551,2.676-.608,4.442s2.751,2.649,4.029,1.966l60.286-32.186c1.279-.683,1.551-2.676.608-4.442s-2.751-2.649-4.029-1.966Z" transform="translate(-342.676 -233.034)" fill="#3080fd"/>
  <path id="Caminho_358" data-name="Caminho 358" d="M576.068,512.875c-1.279.683-1.551,2.676-.608,4.442s2.751,2.649,4.029,1.966L639.776,487.1c1.279-.683,1.551-2.676.608-4.442s-2.751-2.649-4.029-1.966Z" transform="translate(-346.784 -240.726)" fill="#3080fd"/>
  <path id="Caminho_359" data-name="Caminho 359" d="M587.6,534.479c-1.279.683-1.551,2.676-.608,4.442s2.751,2.649,4.029,1.966L651.31,508.7c1.279-.683,1.551-2.676.608-4.442s-2.751-2.649-4.029-1.966Z" transform="translate(-350.89 -248.418)" fill="#3080fd"/>
  <path id="Caminho_360" data-name="Caminho 360" d="M599.137,556.083c-1.279.683-1.551,2.676-.608,4.442s2.751,2.649,4.029,1.966l60.286-32.186c1.279-.683,1.551-2.676.608-4.442s-2.751-2.649-4.029-1.966Z" transform="translate(-354.997 -256.111)" fill="#3080fd"/>
  <path id="Caminho_361" data-name="Caminho 361" d="M397.312,243.214l54.626,3.336,15.3-45.622L419.323,190.8Z" transform="translate(-141.466 -67.937)" fill="#2f2e41"/>
  <circle id="Elipse_29" data-name="Elipse 29" cx="21.847" cy="21.847" r="21.847" transform="translate(273.395 120.046)" fill="#ffb8b8"/>
  <path id="Caminho_362" data-name="Caminho 362" d="M488.867,269.985l-35.417,5.8-9.337-37.027L468.9,236.5Z" transform="translate(-158.129 -84.207)" fill="#ffb8b8"/>
  <path id="Caminho_363" data-name="Caminho 363" d="M711.137,594.4l.142,1.7a175.641,175.641,0,0,1-85.625,7.251l-.187,3.02a10.335,10.335,0,0,1-14.031,8.977l6.1-13.529,7.721-17.122,5.061-11.224-1.822-38.83-.193-4.018-.238-5.126,3.3-.019,23.44-.142,22.338-.142,3.406-.019C701.909,551.444,719.534,572.8,711.137,594.4Z" transform="translate(-359.793 -256.647)" fill="#2f2e41"/>
  <path id="Caminho_364" data-name="Caminho 364" d="M686.8,469.109l-52.159,5.8-1.932-36.061c-6.121-15.612-2.081-29.547,10.624-42.052l2.583-10.223A15.135,15.135,0,0,1,657.1,375.55h0a53.891,53.891,0,0,1,29.061-6.9h0a21.685,21.685,0,0,1,13.732,21.885C697.647,418.879,693.618,445.407,686.8,469.109Z" transform="translate(-366.369 -200.907)" fill="#3080fd"/>
  <path id="Caminho_365" data-name="Caminho 365" d="M661.771,430.315l-.419,3.162-6.665,50.286-3.529,7.566-1.153,2.473-26.872,57.575-1.127,17.966-.187,3.02a10.322,10.322,0,1,1-19.788-4.688l1.075-2.531,5.86-13.768,15.886-50.743,1.307-4.186,1.558-4.978,4.43-14.148,7.058-43.5.67-4.147Z" transform="translate(-356.146 -222.643)" fill="#ffb8b8"/>
  <path id="Caminho_366" data-name="Caminho 366" d="M685.242,416.3c-10.12-3.637-19.828-4.023-28.977,0l2.986-25.883a12.345,12.345,0,0,1,11.689-12.746h0a12.345,12.345,0,0,1,12.979,11.721Z" transform="translate(-375.754 -204.123)" fill="#3080fd"/>
  <path id="Caminho_367" data-name="Caminho 367" d="M640.811,284.706s-11.3,4.122-11.587,19.11a27.053,27.053,0,0,0,1,7.463c.732,2.755,1.32,8.731-3.606,16.7A154.467,154.467,0,0,0,617.9,344.02h0l12.72,1.227,2.1-21.086a104.662,104.662,0,0,1,7.477-29.729l.082-.2s5.835,10.142,16.926,9.83l-4.073-3.849s13.891,5.231,21.445,6.281a4.784,4.784,0,0,1,2.881,7.955l-.136.146c-4.619,4.887-13.813,16.246-8.022,24.8s1.1,11.068,1.1,11.068l8.58-5,3.894-2.488.089,3.169,20.53-2.957s5.523-.948-6.739-14.081c0,0-3.285-5.141-2.039-9.691a22.76,22.76,0,0,0,.565-10.665C692.213,293.982,680.936,264.75,640.811,284.706Z" transform="translate(-362.096 -168.625)" fill="#2f2e41"/>
  <ellipse id="Elipse_30" data-name="Elipse 30" cx="78.561" cy="4.508" rx="78.561" ry="4.508" transform="translate(215.794 429.611)" fill="#e6e6e6"/>
  <path id="Caminho_368" data-name="Caminho 368" d="M221.13,423.359a.645.645,0,0,0-.456.788L238.246,490.1a.645.645,0,0,0,.788.456L288.813,477.3a.644.644,0,0,0,.456-.788L271.7,410.553a.645.645,0,0,0-.788-.456Z" transform="translate(-220.652 -215.666)" fill="#f2f2f2"/>
  <path id="Caminho_369" data-name="Caminho 369" d="M239.91,442.836a1.6,1.6,0,0,0-.786,2.051c.253.948,1.016,1.571,1.7,1.388l32.356-8.621a1.6,1.6,0,0,0,.786-2.051c-.253-.948-1.016-1.571-1.7-1.388Z" transform="translate(-227.2 -224.25)" fill="#fff"/>
  <path id="Caminho_370" data-name="Caminho 370" d="M243,454.431a1.6,1.6,0,0,0-.786,2.051c.253.948,1.016,1.571,1.7,1.388l32.356-8.621a1.6,1.6,0,0,0,.786-2.051c-.253-.948-1.016-1.571-1.7-1.388Z" transform="translate(-228.299 -228.378)" fill="#fff"/>
  <path id="Caminho_371" data-name="Caminho 371" d="M246.088,466.027a1.6,1.6,0,0,0-.786,2.051c.253.948,1.016,1.571,1.7,1.388l32.356-8.621a1.6,1.6,0,0,0,.786-2.051c-.253-.948-1.016-1.571-1.7-1.388Z" transform="translate(-229.399 -232.507)" fill="#fff"/>
  <path id="Caminho_372" data-name="Caminho 372" d="M249.178,477.622a1.6,1.6,0,0,0-.786,2.051c.253.948,1.016,1.571,1.7,1.388l32.356-8.621a1.6,1.6,0,0,0,.786-2.051c-.253-.948-1.016-1.571-1.7-1.388Z" transform="translate(-230.5 -236.636)" fill="#fff"/>
  <path id="Caminho_373" data-name="Caminho 373" d="M252.267,489.218a1.6,1.6,0,0,0-.786,2.051c.253.948,1.016,1.571,1.7,1.388l32.356-8.621a1.6,1.6,0,0,0,.786-2.051c-.253-.948-1.016-1.571-1.7-1.388Z" transform="translate(-231.599 -240.765)" fill="#fff"/>
  <path id="Caminho_374" data-name="Caminho 374" d="M255.357,500.813a1.6,1.6,0,0,0-.786,2.051c.253.948,1.016,1.571,1.7,1.388l32.356-8.621a1.6,1.6,0,0,0,.786-2.051c-.253-.948-1.016-1.571-1.7-1.388Z" transform="translate(-232.7 -244.893)" fill="#fff"/>
  <path id="Caminho_375" data-name="Caminho 375" d="M418.948,784.914c0,.082.289.149.644.149H487.85c.355,0,.644-.067.644-.149V772.978c0-.082-.289-.149-.644-.149H419.592c-.355,0-.644.067-.644.149Z" transform="translate(-291.256 -344.827)" fill="#f2f2f2"/>
  <path id="Caminho_376" data-name="Caminho 376" d="M440.184,783.9c0,.165.8.3,1.78.3s1.78-.134,1.78-.3v-7.759c0-.165-.8-.3-1.78-.3s-1.78.134-1.78.3Z" transform="translate(-298.818 -345.899)" fill="#fff"/>
  <path id="Caminho_377" data-name="Caminho 377" d="M452.184,783.9c0,.165.8.3,1.78.3s1.78-.134,1.78-.3v-7.759c0-.165-.8-.3-1.78-.3s-1.78.134-1.78.3Z" transform="translate(-303.09 -345.899)" fill="#fff"/>
  <path id="Caminho_378" data-name="Caminho 378" d="M464.184,783.9c0,.165.8.3,1.78.3s1.78-.134,1.78-.3v-7.759c0-.165-.8-.3-1.78-.3s-1.78.134-1.78.3Z" transform="translate(-307.363 -345.899)" fill="#fff"/>
  <path id="Caminho_379" data-name="Caminho 379" d="M476.184,783.9c0,.165.8.3,1.78.3s1.78-.134,1.78-.3v-7.759c0-.165-.8-.3-1.78-.3s-1.78.134-1.78.3Z" transform="translate(-311.636 -345.899)" fill="#fff"/>
  <path id="Caminho_380" data-name="Caminho 380" d="M488.184,783.9c0,.165.8.3,1.78.3s1.78-.134,1.78-.3v-7.759c0-.165-.8-.3-1.78-.3s-1.78.134-1.78.3Z" transform="translate(-315.908 -345.899)" fill="#fff"/>
  <path id="Caminho_381" data-name="Caminho 381" d="M500.184,783.9c0,.165.8.3,1.78.3s1.78-.134,1.78-.3v-7.759c0-.165-.8-.3-1.78-.3s-1.78.134-1.78.3Z" transform="translate(-320.181 -345.899)" fill="#fff"/>
  <path id="Caminho_382" data-name="Caminho 382" d="M224.042,343.332a.645.645,0,0,0-.265.871l32.148,60.214a.645.645,0,0,0,.871.265l45.444-24.263a.645.645,0,0,0,.265-.871l-32.148-60.214a.645.645,0,0,0-.871-.265Z" transform="translate(-221.737 -183.236)" fill="#e6e6e6"/>
  <path id="Caminho_383" data-name="Caminho 383" d="M229.377,347.615l29.419,55.1,40.331-21.532-29.419-55.1Zm-2.556,1.364.006,0-.006,0Z" transform="translate(-222.848 -185.76)" fill="#fff"/>
  <path id="Caminho_384" data-name="Caminho 384" d="M246.265,360.146a1.6,1.6,0,0,0-.3,2.177c.462.866,1.348,1.3,1.974.963l29.539-15.77a1.6,1.6,0,0,0,.3-2.177c-.462-.866-1.348-1.3-1.974-.964Z" transform="translate(-229.567 -192.233)" fill="#3080fd"/>
  <path id="Caminho_385" data-name="Caminho 385" d="M251.916,370.731a1.6,1.6,0,0,0-.3,2.177c.462.866,1.348,1.3,1.974.963L283.131,358.1a1.6,1.6,0,0,0,.3-2.177c-.462-.865-1.348-1.3-1.974-.963Z" transform="translate(-231.579 -196.002)" fill="#3080fd"/>
  <path id="Caminho_386" data-name="Caminho 386" d="M257.568,381.317a1.6,1.6,0,0,0-.3,2.177c.462.866,1.348,1.3,1.974.963l29.539-15.771a1.6,1.6,0,0,0,.3-2.177c-.462-.866-1.348-1.3-1.974-.963Z" transform="translate(-233.592 -199.771)" fill="#3080fd"/>
  <path id="Caminho_387" data-name="Caminho 387" d="M263.22,391.9a1.6,1.6,0,0,0-.3,2.177c.462.866,1.348,1.3,1.974.963l29.539-15.771a1.6,1.6,0,0,0,.3-2.177c-.462-.866-1.348-1.3-1.974-.963Z" transform="translate(-235.604 -203.54)" fill="#3080fd"/>
  <path id="Caminho_388" data-name="Caminho 388" d="M268.871,402.488a1.6,1.6,0,0,0-.3,2.177c.462.865,1.348,1.3,1.974.963l29.539-15.771a1.6,1.6,0,0,0,.3-2.177c-.462-.866-1.348-1.3-1.974-.963Z" transform="translate(-237.616 -207.309)" fill="#3080fd"/>
  <path id="Caminho_389" data-name="Caminho 389" d="M274.523,413.074a1.6,1.6,0,0,0-.3,2.177c.462.865,1.348,1.3,1.974.963l29.539-15.771a1.6,1.6,0,0,0,.3-2.177c-.462-.866-1.348-1.3-1.974-.964Z" transform="translate(-239.629 -211.079)" fill="#3080fd"/>
  <path id="Caminho_390" data-name="Caminho 390" d="M890.246,595.7a.645.645,0,0,0-.882.227l-34.726,58.764a.645.645,0,0,0,.227.882l44.35,26.209a.645.645,0,0,0,.882-.227l34.726-58.764a.645.645,0,0,0-.227-.882Z" transform="translate(-446.354 -281.726)" fill="#e6e6e6"/>
  <path id="Caminho_391" data-name="Caminho 391" d="M893.489,601.955,861.712,655.73l39.36,23.26,31.778-53.775ZM891,600.481l.005,0-.006,0Z" transform="translate(-448.905 -283.461)" fill="#fff"/>
  <path id="Caminho_392" data-name="Caminho 392" d="M909.941,621.077a1.874,1.874,0,0,0-1.811,3.065l28.828,17.035a1.874,1.874,0,0,0,1.811-3.065Z" transform="translate(-465.246 -290.747)" fill="#3080fd"/>
  <path id="Caminho_393" data-name="Caminho 393" d="M903.836,631.408a1.874,1.874,0,0,0-1.811,3.065l28.828,17.036a1.874,1.874,0,0,0,1.811-3.065Z" transform="translate(-463.072 -294.425)" fill="#3080fd"/>
  <path id="Caminho_394" data-name="Caminho 394" d="M897.731,641.739a1.874,1.874,0,0,0-1.811,3.064l28.828,17.036a1.874,1.874,0,0,0,1.811-3.065Z" transform="translate(-460.898 -298.104)" fill="#3080fd"/>
  <path id="Caminho_395" data-name="Caminho 395" d="M891.626,652.07a1.874,1.874,0,0,0-1.811,3.064l28.828,17.036a1.874,1.874,0,0,0,1.811-3.064Z" transform="translate(-458.724 -301.782)" fill="#3080fd"/>
  <path id="Caminho_396" data-name="Caminho 396" d="M885.521,662.4a1.874,1.874,0,0,0-1.811,3.065L912.538,682.5a1.874,1.874,0,0,0,1.811-3.065Z" transform="translate(-456.551 -305.461)" fill="#3080fd"/>
  <path id="Caminho_397" data-name="Caminho 397" d="M879.416,672.732a1.874,1.874,0,0,0-1.811,3.065l28.828,17.036a1.874,1.874,0,0,0,1.811-3.065Z" transform="translate(-454.377 -309.139)" fill="#3080fd"/>
</svg>
