<svg xmlns="http://www.w3.org/2000/svg" viewBox="0 0 512 512"><path fill="#D0314E" d="M512 472c0 22.094-17.906 40-40 40H40c-22.094 0-40-17.906-40-40V40C0 17.906 17.906 0 40 0h432c22.094 0 40 17.906 40 40v432z"/><path fill="#FFF" d="M405.032 180.238l-38.418 101.406-13.848-101.406h-58.521l-3.127 34.398s-4.467-39.758-65.668-37.078-62.988 49.586-56.287 63.882c0 0-15.635-13.402-.447-42.886.614-1.191-4.467-18.316-4.467-18.316h-40.205l-7.585 15.169c-.74 8.904-.468 30.449 16.072 48.712l11.615-12.062v40.652h-39.312l11.168-11.168s-12.462-11.647-8.135-48.952L47.653 333.017h41.545L102.6 305.32h53.607s7.148 27.697 48.693 30.377c41.545 2.68 58.521-10.721 72.369-24.123l-3.574 20.996h37.078l15.635-115.255 19.209 114.808h28.59l47.799-116.595-12.953 115.702h34.844L464 180.238h-58.968zM241.085 299.96c-18.022 14.017-38.738 2.49-45.268-6.701-8.637-12.156-11.466-36.524-11.466-36.524 5.361 8.595 29.931 14.634 42.439 15.974 12.508 1.341 29.036 15.785 14.295 27.251zm42.587-3.723s10.721-28.293-9.232-43.183c-19.954-14.891-44.97-10.424-61.648-21.443-16.678-11.019-4.765-23.528 7.148-25.017 11.913-1.489 30.93-.113 30.377 17.869l39.014-.298-3.276 24.421s14.295 29.484-2.383 47.651z"/></svg>