<svg height="120" viewBox="0 0 200 120" width="200" xmlns="http://www.w3.org/2000/svg"><g fill="none" fill-rule="evenodd"><path d="m0 0h200v120h-200z"/><g fill-rule="nonzero" transform="translate(0 29.25)"><path d="m184.151 19.132-.006.009 7.919 11.074-7.919 10.995.023.035 7.899-11.03z" fill="#002e6d"/><path d="m184.145 19.141-13.692-19.141h-15.832l21.585 30.215-22.589 31.553h15.718l14.81-20.558 7.919-10.995z" fill="#ea0029"/><path d="m200 19.132-7.925-11.08-7.924 11.08 7.916 11.083-7.899 11.03 7.907 10.976 7.905-10.976-7.896-11.03z" fill="#002e6d"/><path d="m19.475 45.985v4.468h-19.475v-32.113h19.028v4.464h-14.204v9.158h12.863v4.241h-12.863v9.782z" fill="#ea0029"/><path d="m64.9375907 38.7053701c0 7.7271408-4.1103048 12.191582-10.0058055 12.191582-3.9303338 0-6.5195936-2.2786647-7.413643-5.2714078v14.2931785h-4.777939v-32.9608128h4.777939v4.8243832c.8940494-2.9927431 3.4833092-5.2714079 7.413643-5.2714079 5.8955007 0 10.0058055 4.467344 10.0058055 12.1944848zm-4.9143686-.7140784c0-5.448476-2.3222061-7.4600871-6.25254-7.4600871-2.7692307 0-5.1349782.8040639-6.2525399 3.5297533v9.2888244c1.1175617 2.7256894 3.4833092 3.5297533 6.2525399 3.5297533 3.9303339 0 6.25254-2.0116111 6.25254-7.4600871zm22.777939-11.4804064v4.5486212c-5.5820029 0-7.1436865.7140784-8.2612482 4.1074021v15.2772133h-4.777939v-23.4862119h4.777939v5.4513788c1.1611031-3.7097242 2.8592163-5.8984035 8.2612482-5.8984035zm22.5689409 13.6226416h-15.5094344c.1770682 4.7808418 2.0087083 6.8330914 6.072569 6.8330914 2.7870906.0164188 5.5241644-.7401952 7.9071114-2.1857765l.891147 3.8403483c-1.695211 1.2946299-4.9579101 2.2786648-8.6182875 2.2786648-7.5471698 0-11.1669085-4.3338172-11.1669085-12.191582 0-6.8795356 3.4397678-12.191582 10.6298984-12.191582 7.1030476 0 9.7822936 5.2714078 9.7822936 11.9709724zm-15.465893-3.5587809h11.030479c-.223512-4.1509434-2.0116111-6.0290276-5.317852-6.0290276-3.3904209-.0145138-5.4455733 1.7735849-5.712627 6.0290276zm18.177068 12.0899855.984035-3.796807c2.400581 1.2075472 4.722787 1.8664732 7.370102 1.8664732 2.589259 0 4.377358-.6269957 4.377358-2.8156749 0-2.0551524-1.521045-2.5457184-4.377358-3.2162555l-.580552-.1335268c-4.467344-1.0275762-7.503628-2.455733-7.503628-6.9230769 0-3.4368651 2.412191-7.1465893 8.751814-7.1465893 3.439768 0 6.119013 1.0275762 7.860668 2.1451379l-.891147 4.0203193c-2.066897-1.3562465-4.494903-2.0573333-6.966618-2.011611-2.902758 0-4.287373.9404934-4.287373 2.682148 0 1.8751814 1.027576 2.4092888 4.780841 3.2597968l.580552.1335269c3.52685.8040638 7.190131 1.9216255 7.190131 6.9666182 0 4.1103048-2.769231 7.1931398-8.888244 7.1931398-3.219158.0115047-6.702468-.9289888-8.400581-2.2236187zm19.640058 0 .984035-3.796807c2.412192 1.2075472 4.734398 1.8780842 7.370102 1.8780842 2.589259 0 4.377358-.6269956 4.377358-2.8156749 0-2.0551524-1.521045-2.5457184-4.377358-3.2162554l-.580552-.1335269c-4.455733-1.0275762-7.483309-2.4557329-7.483309-6.9085631 0-3.436865 2.412192-7.1465893 8.751814-7.1465893 3.439768 0 6.119013 1.0275762 7.860668 2.1451379l-.891147 4.0203193c-2.066744-1.3565782-4.494855-2.0576953-6.966618-2.011611-2.902758 0-4.287373.9404935-4.287373 2.682148 0 1.8751814 1.027576 2.4092888 4.780842 3.2597968l.580551.1335269c3.526851.8040638 7.190131 1.9216255 7.190131 6.9666183 0 4.1103048-2.769231 7.1930334-8.888244 7.1930334-3.227866-.0145138-6.711175-.9550073-8.4209-2.2496372z" fill="#ea0029"/><path d="m33.925 34.163-.003.002 2.989 4.183-2.989 4.151.008.015 2.984-4.166z" fill="#002e6d"/><path d="m33.922 34.165-5.17-7.227h-5.98l8.151 11.41-8.531 11.916h5.936l5.594-7.765 2.989-4.151z" fill="#ea0029"/><g fill="#002e6d"><path d="m39.91 34.163-2.993-4.186-2.992 4.186 2.989 4.185-2.984 4.166 2.987 4.145 2.984-4.145-2.981-4.166z"/><path d="m140.548621 18.3918723c3.015965 0 4.354137-1.4746009 4.354137-3.5007257 0-2.5573295-2.002903-3.1523948-3.433963-3.4833092l-.310595-.0667634c-1.718432-.3976778-2.444122-.5805515-2.444122-1.6081277 0-.83889695.682148-1.27721335 2.113208-1.27721335 1.214724-.02664536 2.410616.30336024 3.439768.94920174l.441219-1.98258346c-1.167426-.71031557-2.51169-1.07656716-3.878084-1.05660377-3.12627 0-4.316401 1.87227866-4.316401 3.52394775 0 2.44412189 2.203193 3.03918719 3.811321 3.43686499l.290276.0667635c1.451378.3280116 2.113207.5486211 2.113207 1.6081277 0 .9898403-.725689 1.2975326-2.179971 1.2975326-1.280777.0254471-2.547108-.2741579-3.680696-.8708273l-.484761 1.8722787c.838897.6386067 2.577649 1.1001452 4.165457 1.1001452m-11.12627-10.04354141c2.031931 0 3.152395 1.29753265 3.152395 3.67779391v.7053701c0 2.3570392-1.123367 3.6777939-3.129173 3.6777939-2.005805 0-3.129172-1.3439768-3.129172-3.6777939v-.7140784c0-2.35703917 1.123367-3.67779389 3.10595-3.67779389m0 10.04354139c3.74746 0 5.573295-2.7982584 5.573295-5.904209v-.2409289c0-3.12917272-1.825835-5.88098694-5.573295-5.88098694s-5.515239 2.75181422-5.515239 5.88098694v.2351234c0 3.1059506 1.805515 5.904209 5.515239 5.904209m-12.069666-10.15965171c1.828737 0 2.708273.92307693 2.818578 3.08272861h-5.529754c.133527-2.15965168 1.123368-3.08272861 2.711176-3.08272861m4.911466 4.04354141c0-3.28301891-1.277213-5.90420904-4.911466-5.90420904-3.413643 0-5.111756 2.64150943-5.111756 5.90420904v.2409288c0 3.2394775 1.387518 5.880987 5.46299 5.880987 1.828737 0 3.416545-.4847605 4.25254-1.1233672l-.44122-1.8490566c-1.172271.7212064-2.522047 1.1021186-3.898403 1.1001451-1.982583 0-2.928882-1.0798258-2.995646-3.5007257h7.642961zm-15.152395-2.99854866v-2.6850508h-2.357039v11.58490566h2.357039v-7.532656c.551524-1.67489117 1.320755-2.03193036 4.063861-2.03193036v-2.24092888c-2.664732 0-3.503629 1.07982583-4.063861 2.90275762m-8.525399 0v-2.68214804h-2.3599419v11.58490566h2.3570392v-7.532656c.5515239-1.67489117 1.3207547-2.03193036 4.0638607-2.03193036v-2.24092888c-2.6647315 0-3.5036285 1.07982583-4.0638607 2.90275762m-10.3076923-.92307692c2.0319303 0 3.149492 1.29753265 3.149492 3.67779394v.7053701c0 2.3570391-1.1233672 3.6777939-3.1291727 3.6777939s-3.1291727-1.3410741-3.1291727-3.6748912v-.7053701c0-2.35703917 1.1262699-3.67779389 3.1088534-3.67779389m0 10.04354139c3.7445573 0 5.5732946-2.7982584 5.5732946-5.904209v-.2409289c0-3.12917272-1.8287373-5.88098694-5.5732946-5.88098694-3.7445574 0-5.5297533 2.75181422-5.5297533 5.88098694v.2351234c0 3.1059506 1.8055152 5.904209 5.5297533 5.904209m-12.1393324-.2206096c1.8425616.0118431 3.6268582-.6451494 5.0217707-1.8490566l-.8127721-2.0319304c-1.1233672.8127722-2.4034834 1.497823-4.1422352 1.497823-2.7547169 0-4.6269956-1.7184325-4.6269956-5.3091437v-.98113208c0-3.65457185 1.7619739-5.26269957 4.6037736-5.26269957 1.7851959 0 3.04209.72568941 4.1654572 1.60812772l.8127721-2.13933236c-1.3928551-1.20739483-3.1785135-1.86488869-5.0217707-1.84905661-4.4499274 0-7.1582003 2.97242381-7.1582003 7.97387519v.33671991c0 5.065312 2.6124819 8.0174165 7.1582003 8.0174165"/></g></g></g></svg>