<?xml version="1.0" encoding="UTF-8" standalone="no"?>
<svg
   xmlns:dc="http://purl.org/dc/elements/1.1/"
   xmlns:cc="http://creativecommons.org/ns#"
   xmlns:rdf="http://www.w3.org/1999/02/22-rdf-syntax-ns#"
   xmlns:svg="http://www.w3.org/2000/svg"
   xmlns="http://www.w3.org/2000/svg"
   viewBox="0 0 1122.52 793.70135"
   height="793.70135"
   width="1122.52"
   xml:space="preserve"
   id="svg2"
   version="1.1"><metadata
     id="metadata8"><rdf:RDF><cc:Work
         rdf:about=""><dc:format>image/svg+xml</dc:format><dc:type
           rdf:resource="http://purl.org/dc/dcmitype/StillImage" /></cc:Work></rdf:RDF></metadata><defs
     id="defs6"><clipPath
       id="clipPath18"
       clipPathUnits="userSpaceOnUse"><path
         id="path16"
         d="M 0,595.276 H 841.89 V 0 H 0 Z" /></clipPath></defs><g
     transform="matrix(1.3333333,0,0,-1.3333333,0,793.70133)"
     id="g10"><g
       id="g12"><g
         clip-path="url(#clipPath18)"
         id="g14"><g
           transform="translate(381.4561,294.3809)"
           id="g20"><path
             id="path22"
             style="fill:none;stroke:#9e9fa1;stroke-width:1.38800001;stroke-linecap:butt;stroke-linejoin:miter;stroke-miterlimit:3.86400008;stroke-dasharray:none;stroke-opacity:1"
             d="M 0,0 C -1.047,4.848 2.032,9.606 6.877,10.628 11.721,11.65 16.497,8.549 17.544,3.701 18.591,-1.146 15.512,-5.905 10.668,-6.927 5.823,-7.949 1.046,-4.848 0,0 Z" /></g><g
           transform="translate(386.4712,295.3994)"
           id="g24"><path
             id="path26"
             style="fill:none;stroke:#2d2c2e;stroke-width:0.52600002;stroke-linecap:butt;stroke-linejoin:miter;stroke-miterlimit:3.86400008;stroke-dasharray:none;stroke-opacity:1"
             d="M 0,0 C -0.448,2.07 0.867,4.104 2.937,4.541 5.007,4.977 7.048,3.651 7.496,1.579 7.944,-0.492 6.629,-2.524 4.559,-2.961 2.489,-3.397 0.448,-2.071 0,0 Z" /></g><g
           transform="translate(388.9038,295.9092)"
           id="g28"><path
             id="path30"
             style="fill:#f79239;fill-opacity:1;fill-rule:nonzero;stroke:none"
             d="M 0,0 C -0.156,0.726 0.305,1.438 1.032,1.593 1.758,1.747 2.473,1.282 2.629,0.556 2.785,-0.171 2.323,-0.884 1.597,-1.038 0.871,-1.191 0.156,-0.728 0,0" /></g><g
           transform="translate(393.0801,283.7178)"
           id="g32"><path
             id="path34"
             style="fill:none;stroke:#2d2c2e;stroke-width:0.266;stroke-linecap:butt;stroke-linejoin:miter;stroke-miterlimit:3.86400008;stroke-dasharray:none;stroke-opacity:1"
             d="m 0,0 -2.261,10.574 m -13.255,-0.672 10.762,2.297 m 4.111,0.877 10.474,2.237 M -3.141,14.7 -5.379,25.173" /></g><g
           transform="translate(395.6729,301.9238)"
           id="g36"><path
             id="path38"
             style="fill:#f79239;fill-opacity:1;fill-rule:nonzero;stroke:none"
             d="m 0,0 c -0.395,0.144 -0.936,0.172 -1.372,0.08 -0.866,-0.184 -1.459,-0.91 -1.412,-1.817 0.046,-0.864 0.52,-0.955 1.236,-1.013 0.245,-0.02 0.692,-0.039 0.709,-0.365 0.017,-0.314 -0.257,-0.51 -0.521,-0.566 -0.384,-0.081 -0.728,0.055 -1.021,0.25 l -0.433,-1.038 c 0.458,-0.226 1.001,-0.302 1.546,-0.187 0.436,0.093 0.882,0.313 1.205,0.682 0.328,0.375 0.407,0.853 0.384,1.298 -0.038,0.723 -0.519,0.938 -1.131,0.994 l -0.291,0.028 c -0.198,0.023 -0.508,0.06 -0.521,0.32 -0.013,0.249 0.255,0.433 0.462,0.477 0.275,0.058 0.545,-0.005 0.76,-0.139 L 0,0" /></g><g
           transform="translate(407.6582,293.8438)"
           id="g40"><path
             id="path42"
             style="fill:#f79239;fill-opacity:1;fill-rule:nonzero;stroke:none"
             d="M 0,0 H 3.092 L 4.246,7.288 H 4.277 L 8.787,0 h 3.092 l 1.883,11.896 H 10.67 L 9.519,4.622 H 9.487 L 4.975,11.896 H 1.883 Z" /></g><g
           transform="translate(428.792,295.9102)"
           id="g44"><path
             id="path46"
             style="fill:#f79239;fill-opacity:1;fill-rule:evenodd;stroke:none"
             d="M 0,0 0.446,-2.066 H 3.743 L 1.146,9.829 H -2.229 L -8.688,-2.066 h 3.283 L -4.259,0 Z m -0.461,2.367 h -2.571 l 1.877,3.786 h 0.031 z" /></g><g
           transform="translate(442.834,305.4551)"
           id="g48"><path
             id="path50"
             style="fill:#f79239;fill-opacity:1;fill-rule:nonzero;stroke:none"
             d="m 0,0 c -0.855,0.378 -1.734,0.599 -2.729,0.599 -1.671,0 -3.475,-0.726 -4.832,-1.925 -1.321,-1.167 -2.183,-2.729 -2.44,-4.354 -0.28,-1.767 0.075,-3.312 1.196,-4.496 1.054,-1.12 2.532,-1.751 4.188,-1.751 0.963,0 1.741,0.237 2.817,0.552 l 0.587,3.708 C -1.982,-8.441 -3.07,-8.93 -4.079,-8.93 c -1.925,0 -3.004,1.357 -2.707,3.235 0.293,1.845 1.8,3.296 3.693,3.296 1.057,0 2.01,-0.457 2.506,-1.309 L 0,0" /></g><g
           transform="translate(451.1387,303.1201)"
           id="g52"><path
             id="path54"
             style="fill:#f79239;fill-opacity:1;fill-rule:nonzero;stroke:none"
             d="M 0,0 0.413,2.619 H -6.354 L -8.236,-9.276 h 6.767 l 0.414,2.619 -3.675,-0.001 0.324,2.051 h 3.486 l 0.415,2.619 H -3.992 L -3.677,0 Z" /></g><g
           transform="translate(455.8047,300.2012)"
           id="g56"><path
             id="path58"
             style="fill:#f79239;fill-opacity:1;fill-rule:nonzero;stroke:none"
             d="m 0,0 -5.66,-6.357 h 3.738 l 3.344,3.879 1.879,-3.879 H 7.023 L 3.629,0 8.307,5.538 H 4.504 L 2.203,2.461 0.877,5.538 h -3.803 z" /></g><g
           transform="translate(418.4819,290.1699)"
           id="g60"><path
             id="path62"
             style="fill:#2d2c2e;fill-opacity:1;fill-rule:nonzero;stroke:none"
             d="m 0,0 c -0.296,0.28 -0.694,0.394 -1.092,0.394 -0.705,0 -1.404,-0.366 -1.404,-1.152 10e-4,-1.361 1.808,-0.883 1.809,-1.717 0,-0.35 -0.355,-0.522 -0.667,-0.522 -0.301,10e-4 -0.586,0.146 -0.753,0.399 l -0.511,-0.495 c 0.312,-0.371 0.775,-0.517 1.249,-0.517 0.747,0 1.393,0.398 1.392,1.215 -0.001,1.356 -1.808,0.921 -1.809,1.685 0,0.35 0.312,0.49 0.624,0.49 0.264,0 0.522,-0.097 0.667,-0.301 L 0,0" /></g><g
           transform="translate(421.5791,287.7197)"
           id="g64"><path
             id="path66"
             style="fill:#2d2c2e;fill-opacity:1;fill-rule:evenodd;stroke:none"
             d="m 0,0 v 0.179 c -0.001,0.898 -0.491,1.403 -1.212,1.404 -0.779,0 -1.403,-0.543 -1.403,-1.354 0.001,-0.814 0.625,-1.358 1.405,-1.358 0.409,0 0.791,0.146 1.092,0.517 l -0.463,0.349 c -0.161,-0.199 -0.371,-0.349 -0.694,-0.348 -0.36,0 -0.65,0.23 -0.694,0.612 z m -1.969,0.486 c 0.048,0.371 0.285,0.614 0.666,0.614 0.404,0 0.652,-0.238 0.657,-0.615 l -1.323,0.001" /></g><g
           transform="translate(422.125,286.6553)"
           id="g68"><path
             id="path70"
             style="fill:#2d2c2e;fill-opacity:1;fill-rule:nonzero;stroke:none"
             d="M 0,0 H 0.646 L 0.645,1.382 c 0,0.139 0.085,0.651 0.694,0.651 0.102,0 0.204,-0.021 0.311,-0.049 V 2.608 C 1.575,2.63 1.499,2.646 1.419,2.646 1.08,2.646 0.795,2.469 0.654,2.173 H 0.645 V 2.582 L -0.001,2.583 0,0" /></g><g
           transform="translate(424.8652,286.6543)"
           id="g72"><path
             id="path74"
             style="fill:#2d2c2e;fill-opacity:1;fill-rule:evenodd;stroke:none"
             d="M 0,0 H 0.689 L 1.703,2.582 H 1.042 L 0.349,0.774 h -0.01 l -0.691,1.809 h -0.705 z" /></g><g
           transform="translate(426.9063,286.6533)"
           id="g76"><path
             id="path78"
             style="fill:#2d2c2e;fill-opacity:1;fill-rule:evenodd;stroke:none"
             d="M 0,0 H 0.645 L 0.643,2.582 -0.002,2.583 Z m -0.094,3.46 c 0,-0.205 0.172,-0.389 0.408,-0.389 0.238,0 0.42,0.167 0.42,0.389 0,0.22 -0.183,0.387 -0.42,0.387 -0.236,0 -0.408,-0.183 -0.408,-0.387" /></g><g
           transform="translate(430.4453,288.9063)"
           id="g80"><path
             id="path82"
             style="fill:#2d2c2e;fill-opacity:1;fill-rule:nonzero;stroke:none"
             d="m 0,0 c -0.247,0.274 -0.608,0.393 -0.937,0.393 -0.78,0.001 -1.403,-0.543 -1.403,-1.355 0,-0.813 0.625,-1.356 1.406,-1.357 0.225,0 0.666,0.096 0.93,0.361 l -0.432,0.463 c -0.117,-0.156 -0.3,-0.242 -0.5,-0.242 -0.472,0 -0.757,0.371 -0.758,0.775 0,0.402 0.285,0.774 0.758,0.774 0.172,0 0.338,-0.102 0.49,-0.258 L 0,0" /></g><g
           transform="translate(430.7832,286.6523)"
           id="g84"><path
             id="path86"
             style="fill:#2d2c2e;fill-opacity:1;fill-rule:evenodd;stroke:none"
             d="M 0,0 0.645,-0.001 0.644,2.582 h -0.646 z m -0.094,3.459 c 0,-0.204 0.172,-0.388 0.408,-0.388 0.238,0 0.42,0.166 0.42,0.388 0,0.221 -0.183,0.387 -0.42,0.388 -0.236,0 -0.408,-0.183 -0.408,-0.388" /></g><g
           transform="translate(431.9824,287.9424)"
           id="g88"><path
             id="path90"
             style="fill:#2d2c2e;fill-opacity:1;fill-rule:evenodd;stroke:none"
             d="m 0,0 c 0.002,-0.813 0.625,-1.356 1.406,-1.356 0.78,0 1.404,0.543 1.403,1.355 0,0.813 -0.625,1.356 -1.405,1.356 C 0.623,1.355 0,0.813 0,0 m 0.646,0 c 0,0.403 0.285,0.774 0.758,0.774 0.473,0 0.758,-0.372 0.76,-0.774 0,-0.404 -0.285,-0.775 -0.758,-0.775 -0.474,0 -0.76,0.372 -0.76,0.775" /></g><g
           transform="translate(436.876,286.6494)"
           id="g92"><path
             id="path94"
             style="fill:#2d2c2e;fill-opacity:1;fill-rule:nonzero;stroke:none"
             d="M 0,0 2.62,-0.001 2.619,0.611 0.677,0.612 0.676,1.646 H 2.425 V 2.259 L 0.676,2.26 V 3.195 L 2.521,3.194 v 0.615 h -2.524 z" /></g><g
           transform="translate(439.6748,286.6484)"
           id="g96"><path
             id="path98"
             style="fill:#2d2c2e;fill-opacity:1;fill-rule:evenodd;stroke:none"
             d="M 0,0 H 0.765 L 1.441,0.925 2.114,-0.001 H 2.9 L 1.861,1.388 2.742,2.582 H 2.005 L 1.446,1.808 0.929,2.582 0.144,2.583 1.037,1.388 Z" /></g><g
           transform="translate(442.8779,285.4199)"
           id="g100"><path
             id="path102"
             style="fill:#2d2c2e;fill-opacity:1;fill-rule:evenodd;stroke:none"
             d="M 0,0 H 0.646 V 1.555 H 0.661 C 0.795,1.388 1.054,1.162 1.538,1.162 2.274,1.161 2.786,1.753 2.785,2.517 2.785,3.281 2.306,3.873 1.509,3.873 1.149,3.873 0.81,3.734 0.622,3.422 H 0.61 v 0.387 h -0.612 z m 2.14,2.517 c 0,-0.403 -0.286,-0.774 -0.758,-0.774 -0.474,0 -0.759,0.371 -0.76,0.776 0,0.403 0.285,0.774 0.759,0.773 0.473,0 0.759,-0.371 0.759,-0.775" /></g><g
           transform="translate(446.209,286.6465)"
           id="g104"><path
             id="path106"
             style="fill:#2d2c2e;fill-opacity:1;fill-rule:nonzero;stroke:none"
             d="M 0,0 0.646,-0.002 0.645,1.382 c 0,0.139 0.085,0.65 0.694,0.65 0.102,0 0.204,-0.021 0.311,-0.049 V 2.607 C 1.575,2.63 1.5,2.646 1.419,2.646 1.08,2.646 0.795,2.469 0.654,2.173 H 0.645 V 2.581 H -0.001 L 0,0" /></g><g
           transform="translate(449.168,289.6787)"
           id="g108"><path
             id="path110"
             style="fill:#2d2c2e;fill-opacity:1;fill-rule:evenodd;stroke:none"
             d="M 0,0 H 0.506 L 1.264,0.774 0.532,0.775 Z m 1.563,-1.97 -0.002,0.178 c 0,0.898 -0.491,1.404 -1.211,1.405 -0.78,0 -1.405,-0.543 -1.403,-1.356 0,-0.812 0.625,-1.356 1.405,-1.356 0.408,0 0.791,0.145 1.091,0.516 L 0.98,-2.232 c -0.162,-0.2 -0.371,-0.351 -0.693,-0.351 -0.361,0 -0.65,0.232 -0.695,0.614 z m -1.971,0.486 c 0.049,0.371 0.285,0.612 0.667,0.612 0.403,0 0.651,-0.236 0.657,-0.612 h -1.324" /></g><g
           transform="translate(453.082,288.8975)"
           id="g112"><path
             id="path114"
             style="fill:#2d2c2e;fill-opacity:1;fill-rule:nonzero;stroke:none"
             d="m 0,0 c -0.21,0.285 -0.576,0.393 -0.92,0.394 -0.521,0 -1.038,-0.258 -1.038,-0.834 10e-4,-0.986 1.394,-0.567 1.394,-1.098 0,-0.205 -0.243,-0.296 -0.43,-0.296 -0.276,0 -0.447,0.135 -0.613,0.317 l -0.431,-0.404 c 0.265,-0.296 0.608,-0.397 1.007,-0.397 0.527,0 1.113,0.214 1.113,0.828 -0.001,1.006 -1.395,0.63 -1.395,1.093 0,0.193 0.206,0.274 0.377,0.274 0.22,0 0.381,-0.093 0.506,-0.265 L 0,0" /></g></g></g></g></svg>